# xmcd
#
# Track frame offsets: 
#        150
#        24379
#        43560
#        60003
#        77418
#        99437
#        115431
#        132512
#        148339
#        170818
#        190169
#        211590
#
# Disc length: 3549 seconds
#
# Revision: 0
# Processed by: cddbd v1.5.2PL0 Copyright (c) Steve Scherf et al.
# Submitted via: ExactAudioCopy v0.95a5
#
DISCID=9e0ddb0c
DTITLE=Keith Urban - Golden Road
DYEAR=2002
DGENRE=Country
TTITLE0=Somebody Like You
TTITLE1=Who Wouldn't Wanna Be Me
TTITLE2=Whenever I Run
TTITLE3=What About Me
TTITLE4=You'll Think Of Me
TTITLE5=Jeans On
TTITLE6=You Look Good In My Shirt
TTITLE7=You're Not Alone Tonight
TTITLE8=You Won
TTITLE9=Song For Dad
TTITLE10=Raining On Sunday
TTITLE11=You're Not My God
EXTD=
EXTT0=
EXTT1=
EXTT2=
EXTT3=
EXTT4=
EXTT5=
EXTT6=
EXTT7=
EXTT8=
EXTT9=
EXTT10=
EXTT11=
PLAYORDER=
